<svg width="40" height="40" viewBox="0 0 40 40" fill="none" xmlns="http://www.w3.org/2000/svg">
<path fill-rule="evenodd" clip-rule="evenodd" d="M34.0068 16.1307C36.6644 13.4731 36.6644 9.16438 34.0068 6.50683C31.3493 3.84928 27.0406 3.84928 24.383 6.50683L7.3428 23.547C6.61503 24.2748 6.09186 25.1815 5.82599 26.1758L4.10883 32.5975C3.49083 34.9086 5.60502 37.0228 7.91618 36.4048L14.3379 34.6877C15.3322 34.4218 16.2389 33.8986 16.9666 33.1709L34.0068 16.1307ZM7.82311 26.7098L6.10596 33.1315C5.89881 33.9062 6.60747 34.6149 7.38215 34.4077L13.8038 32.6906C14.4472 32.5185 15.0339 32.18 15.5048 31.7091L32.545 14.6689C34.3953 12.8186 34.3953 9.81885 32.545 7.96863C30.6948 6.11841 27.695 6.11841 25.8448 7.96863L8.8046 25.0088C8.33368 25.4797 7.99515 26.0664 7.82311 26.7098Z" fill="black"/>
<path d="M6.10596 33.1315L7.82311 26.7098C7.99515 26.0664 8.33368 25.4797 8.8046 25.0088L25.8448 7.96863C27.695 6.11841 30.6948 6.11841 32.545 7.96863C34.3953 9.81885 34.3953 12.8186 32.545 14.6689L15.5048 31.7091C15.0339 32.18 14.4472 32.5185 13.8038 32.6906L7.38215 34.4077C6.60747 34.6149 5.89881 33.9062 6.10596 33.1315Z" fill="white"/>
<path fill-rule="evenodd" clip-rule="evenodd" d="M19.6636 1.02035C21.0258 0.794619 22.313 1.71585 22.5387 3.07799C22.6977 4.03718 22.8577 4.99806 23.018 5.96012C23.4245 8.40112 23.8324 10.8497 24.227 13.2977C24.2516 13.3695 24.2913 13.4895 24.3215 13.6C24.3622 13.7489 24.48 14.1916 24.4184 14.7346C24.3404 15.422 23.9651 16.2582 23.089 16.7575C22.2818 17.2175 21.5141 17.0929 21.2838 17.0489C20.9759 16.9901 20.7348 16.8897 20.6169 16.8374C20.4812 16.7773 20.37 16.7175 20.3106 16.6848C20.2882 16.6725 20.2721 16.6636 20.2611 16.6575C19.9898 16.5189 19.7833 16.4083 19.5989 16.3096C19.3419 16.172 19.1279 16.0574 18.8416 15.9221C18.3646 15.6966 17.8638 15.5008 17.2637 15.2662L17.2335 15.2544C16.6489 15.0258 15.9667 14.7584 15.2898 14.4292C15.0798 14.3271 14.9033 14.2201 14.7874 14.1479C14.7397 14.1182 14.6909 14.0872 14.6545 14.064C14.6472 14.0594 14.6405 14.0551 14.6343 14.0512C14.6153 14.0391 14.5993 14.029 14.5853 14.0202C13.3674 13.6753 12.5836 12.4577 12.807 11.1837C13.0455 9.8237 14.3413 8.91454 15.7012 9.15301C16.3824 9.27245 16.8941 9.57165 17.1401 9.72132C17.2139 9.76627 17.3831 9.87357 17.4226 9.89865C17.4277 9.90185 17.4306 9.90372 17.431 9.90393C17.4636 9.92428 17.4808 9.93424 17.4866 9.93762C17.8588 10.1181 18.251 10.2806 18.6964 10.457C18.4949 9.23707 18.2916 8.0168 18.0881 6.79466C17.9274 5.82967 17.7664 4.86352 17.606 3.89544C17.3803 2.53331 18.3015 1.24609 19.6636 1.02035ZM22.7184 12.3027L22.7176 12.3023C22.7201 12.3037 22.7205 12.3039 22.7184 12.3027ZM24.1954 13.2052C24.1957 13.2055 24.1978 13.212 24.2013 13.2237C24.197 13.2107 24.1952 13.2049 24.1954 13.2052Z" fill="black"/>
<path fill-rule="evenodd" clip-rule="evenodd" d="M19.9091 2.49994C20.454 2.40964 20.9689 2.77814 21.0592 3.32299C21.2186 4.28489 21.3789 5.24739 21.5393 6.21036C21.9524 8.69082 22.3661 11.1745 22.7662 13.6591C22.7683 13.6663 22.7739 13.6843 22.7852 13.7176C22.7876 13.7246 22.7907 13.7334 22.7943 13.7437C22.814 13.8003 22.8493 13.9018 22.8748 13.9952C22.9027 14.0971 22.9567 14.3142 22.9282 14.5653C22.8932 14.8741 22.7284 15.2364 22.3466 15.454C22.0085 15.6466 21.6807 15.5973 21.5654 15.5753C21.4191 15.5473 21.2971 15.4978 21.2251 15.4659C21.1459 15.4308 21.0773 15.3942 21.0332 15.37C21.0112 15.3579 20.9903 15.3461 20.98 15.3403C20.9778 15.3391 20.976 15.3381 20.9746 15.3373C20.7459 15.2207 20.5434 15.1127 20.3503 15.0098C20.0591 14.8544 19.7892 14.7105 19.4829 14.5657C18.9584 14.3178 18.4151 14.1054 17.8339 13.8782L17.78 13.8571C17.1899 13.6264 16.5614 13.3792 15.9461 13.08C15.8059 13.0118 15.6809 12.9369 15.5807 12.8745C15.5241 12.8393 15.4845 12.8139 15.4493 12.7915C15.4072 12.7646 15.3715 12.7418 15.321 12.7111C15.1672 12.6175 15.1131 12.603 15.097 12.6002C14.553 12.5048 14.1893 11.9865 14.2847 11.4425C14.3801 10.8985 14.8984 10.5348 15.4424 10.6302C15.8386 10.6997 16.1541 10.8769 16.3606 11.0025C16.461 11.0636 16.5328 11.1096 16.5909 11.1467C16.6825 11.2054 16.7398 11.2421 16.8208 11.2814C17.3539 11.5407 17.911 11.7609 18.5083 11.9945C18.5336 12.0043 18.5589 12.0143 18.5843 12.0242C19.1483 12.2446 19.7492 12.4795 20.3375 12.7575C20.429 12.8008 20.5223 12.8464 20.6163 12.8935C20.2722 10.7765 19.9199 8.66137 19.5673 6.54401C19.4067 5.57991 19.246 4.61536 19.0861 3.64997C18.9958 3.10512 19.3643 2.59023 19.9091 2.49994ZM22.0356 13.6375C22.0352 13.6373 22.0347 13.6371 22.0341 13.6368C22.038 13.6384 22.0386 13.6388 22.0356 13.6375Z" fill="white"/>
<path fill-rule="evenodd" clip-rule="evenodd" d="M37.1916 16.1151C37.4582 17.4698 36.5761 18.7841 35.2214 19.0507C34.6611 19.161 34.0267 19.3066 33.3494 19.462C32.4651 19.6649 31.5077 19.8847 30.5464 20.0645C31.2526 21.3539 31.984 22.4611 32.8717 23.3363C33.8548 24.3057 33.866 25.8886 32.8966 26.8718C31.9272 27.8549 30.3444 27.8661 29.3612 26.8967C27.3171 24.8813 26.0007 22.251 24.9479 20.094C25.0376 20.2777 24.7475 19.7168 24.597 19.3832C24.5101 19.1906 24.3852 18.899 24.2961 18.5952C24.2552 18.4559 24.1834 18.1884 24.164 17.8664C24.1541 17.7032 24.1511 17.4295 24.2238 17.106C24.2964 16.7828 24.4784 16.2666 24.9489 15.8133C25.4688 15.3123 26.0497 15.1732 26.3577 15.1309C26.6756 15.0873 26.9331 15.1137 27.0683 15.1327C27.3398 15.1709 27.5514 15.2451 27.6355 15.2755C27.7482 15.3164 27.8528 15.3618 27.9363 15.4006C27.9637 15.3976 27.9938 15.3945 28.0234 15.3914C29.3197 15.2587 30.4832 14.9886 31.7943 14.6842C32.5483 14.5092 33.3511 14.3229 34.256 14.1448C35.6107 13.8782 36.925 14.7603 37.1916 16.1151ZM25.8191 19.9302C25.819 19.9301 25.8219 19.9314 25.8279 19.9343C25.8222 19.9317 25.8192 19.9303 25.8191 19.9302Z" fill="black"/>
<path fill-rule="evenodd" clip-rule="evenodd" d="M35.7197 16.4049C35.8263 16.9468 35.4735 17.4725 34.9316 17.5791C34.2755 17.7082 33.5863 17.8668 32.8782 18.0297C31.4184 18.3655 29.8778 18.72 28.3798 18.8734C28.3523 18.8762 28.3212 18.8798 28.2867 18.8839C28.2761 18.8851 28.2653 18.8864 28.2541 18.8877C29.2809 20.976 30.3366 22.9436 31.8183 24.4046C32.2116 24.7924 32.2161 25.4255 31.8283 25.8188C31.4406 26.2121 30.8074 26.2165 30.4142 25.8288C28.5778 24.0182 27.3596 21.6159 26.2958 19.4363C26.3285 19.5033 26.112 19.0943 25.964 18.7663C25.8854 18.592 25.7947 18.3757 25.7352 18.173C25.707 18.0767 25.6706 17.9338 25.6611 17.7764L25.661 17.7745C25.6556 17.6863 25.6287 17.2412 25.9894 16.8937C26.1994 16.6914 26.4347 16.6346 26.5615 16.6172C26.6924 16.5992 26.7999 16.6099 26.8592 16.6182C26.9781 16.635 27.0759 16.6684 27.1244 16.686C27.2322 16.7251 27.3377 16.7762 27.4068 16.8109C27.4754 16.8454 27.5432 16.8815 27.5901 16.9065C27.5949 16.9091 27.5994 16.9115 27.6038 16.9138C27.604 16.9139 27.6042 16.914 27.6044 16.9141C27.6345 16.9198 27.6763 16.9236 27.7381 16.9225C27.8272 16.9209 27.9097 16.9121 28.039 16.8982C28.0795 16.8939 28.1247 16.889 28.1761 16.8838C29.5571 16.7424 30.8754 16.4377 32.256 16.1186C32.9949 15.9479 33.7516 15.773 34.5454 15.6168C35.0873 15.5101 35.613 15.863 35.7197 16.4049ZM27.6501 17.5945C27.6494 17.592 27.6492 17.5908 27.6492 17.5908C27.6493 17.5908 27.6496 17.5921 27.6501 17.5945Z" fill="white"/>
<path fill-rule="evenodd" clip-rule="evenodd" d="M18.3058 22.7341C18.275 22.858 18.2452 22.9684 18.2109 23.0715C18.1266 23.3248 18.1499 23.5545 18.1686 23.679C18.1785 23.7451 18.1913 23.8059 18.1994 23.8437C18.2092 23.8898 18.2125 23.9058 18.2148 23.9193C18.2199 23.9498 18.2231 23.9837 18.2301 24.0561C18.2309 24.0648 18.2318 24.0741 18.2328 24.0839C18.2402 24.1605 18.2518 24.2769 18.2769 24.3985C18.328 24.6458 18.4592 25.0333 18.8584 25.2921C19.0327 25.4051 19.2353 25.4722 19.4592 25.4697C19.6412 25.4677 19.7941 25.4174 19.8558 25.3971L19.86 25.3958C19.8625 25.3949 19.8742 25.3914 19.9029 25.3873C19.9342 25.3829 19.9717 25.3796 20.0343 25.3751C20.4698 25.3439 20.7598 25.1083 20.9319 24.9094C21.0464 24.7771 21.1637 24.5848 21.2063 24.515C21.2135 24.5032 21.2186 24.4949 21.2211 24.491C21.2876 24.389 21.3761 24.293 21.5274 24.1288C21.5369 24.1185 21.5466 24.108 21.5565 24.0972C21.7035 23.9376 21.9143 23.7067 22.0718 23.4192C22.077 23.4098 22.0917 23.3866 22.1426 23.3307C22.1638 23.3075 22.1847 23.2856 22.2123 23.2565C22.2198 23.2487 22.2278 23.2403 22.2364 23.2312C22.2732 23.1925 22.3194 23.1435 22.3665 23.0891C22.4275 23.0188 22.4899 22.9519 22.564 22.8726C22.5796 22.8559 22.5957 22.8386 22.6124 22.8206C22.7031 22.7232 22.8084 22.6086 22.9107 22.4819C23.195 22.1295 23.1398 21.6133 22.7874 21.329C22.4351 21.0446 21.9189 21.0998 21.6345 21.4522C21.5713 21.5305 21.4999 21.6092 21.4122 21.7033C21.3991 21.7174 21.3854 21.7321 21.3712 21.7473C21.2968 21.8269 21.2102 21.9197 21.1275 22.015C21.091 22.0571 21.0721 22.0766 21.0463 22.1032C21.0215 22.1287 20.9902 22.1608 20.9308 22.226C20.8441 22.3211 20.73 22.4557 20.6337 22.6314C20.5837 22.7227 20.5023 22.8214 20.3503 22.9864C20.337 23.0008 20.3229 23.016 20.3081 23.032C20.1782 23.1721 19.9939 23.3708 19.8474 23.5957C19.8408 23.6058 19.8343 23.6158 19.8281 23.6257C19.8242 23.6037 19.8202 23.5835 19.8166 23.566L19.8034 23.5031C19.802 23.4968 19.8008 23.4911 19.7998 23.4859C19.8587 23.2935 19.9044 23.1025 19.9426 22.9424L19.9432 22.9401C19.9691 22.8317 20.0208 22.706 20.1066 22.5388C20.1468 22.4605 20.1896 22.3821 20.2382 22.2931L20.2471 22.2768C20.2973 22.1848 20.3539 22.0808 20.4074 21.9742C20.451 21.8874 20.4887 21.8004 20.5164 21.7365C20.5188 21.731 20.5211 21.7257 20.5233 21.7205C20.5549 21.6477 20.5757 21.6014 20.5966 21.5611C20.6001 21.5546 20.6052 21.5451 20.6115 21.5333C20.6445 21.4721 20.7117 21.3473 20.7584 21.2311C20.8257 21.0632 20.8428 20.9129 20.8507 20.8357L20.8555 20.7857L20.8583 20.7571M20.8583 20.7571C20.8583 20.7571 20.8593 20.7531 20.8599 20.7509C20.8653 20.7298 20.8741 20.6948 20.882 20.6572L20.8825 20.655C20.8865 20.6367 20.9077 20.5387 20.9063 20.4305C20.9059 20.3979 20.9036 20.3189 20.8781 20.2231C20.8608 20.1582 20.7828 19.885 20.4889 19.7179C20.1352 19.5168 19.8074 19.645 19.6835 19.7136C19.5649 19.7791 19.4909 19.8588 19.4641 19.8888C19.4641 19.8888 19.4594 19.893 19.4535 19.8978C19.4464 19.9036 19.4369 19.9111 19.4227 19.9218L19.37 19.9612C19.2382 20.0593 19.1336 20.1654 19.0604 20.2427C19.0247 20.2804 18.9988 20.3084 18.9773 20.3316C18.9446 20.3669 18.9221 20.3912 18.8907 20.4219C18.7451 20.5643 18.6479 20.7272 18.6114 20.7884C18.6073 20.7951 18.6041 20.8006 18.6015 20.8047C18.5987 20.8094 18.5961 20.8134 18.5939 20.817C18.5668 20.8375 18.5409 20.8576 18.5191 20.8744C18.5118 20.8801 18.5049 20.8854 18.4987 20.8902C18.4619 20.9185 18.4367 20.9375 18.4144 20.953C18.374 20.9812 18.3584 20.9865 18.3584 20.9865C18.3242 20.9982 18.2783 21.0127 18.2245 21.0297C18.0276 21.0919 17.7233 21.1879 17.4881 21.3068C17.4126 21.3449 17.3231 21.3991 17.2417 21.4509C17.274 21.3372 17.2882 21.236 17.2964 21.1753C17.2992 21.1547 17.3013 21.1386 17.303 21.1256C17.3193 21.0921 17.3422 21.0417 17.3625 20.9794C17.4064 20.8445 17.4194 20.7215 17.4232 20.6304C17.4268 20.5419 17.4224 20.4602 17.4198 20.4141C17.4196 20.4104 17.4194 20.4069 17.4193 20.4035C17.4173 20.3672 17.4163 20.3488 17.4159 20.3356C17.4444 20.2147 17.4736 20.1139 17.5072 19.9974C17.5318 19.9124 17.5588 19.8191 17.5897 19.7036C17.6574 19.4504 17.7248 19.1495 17.7357 18.8076C17.7502 18.355 17.395 17.9764 16.9424 17.962C16.4899 17.9475 16.1113 18.3027 16.0968 18.7552C16.0917 18.9143 16.0602 19.0759 16.0056 19.2798C15.9913 19.3334 15.9722 19.4002 15.9509 19.4746C15.905 19.6351 15.8491 19.8306 15.8098 20.0029C15.7815 20.1265 15.7762 20.2374 15.7759 20.3174C15.7757 20.3843 15.7796 20.4517 15.7818 20.4902C15.782 20.4937 15.7822 20.497 15.7823 20.5C15.7578 20.5541 15.7277 20.6315 15.7084 20.7222C15.697 20.7761 15.6893 20.8249 15.6838 20.8634C15.6805 20.8863 15.6765 20.9167 15.6738 20.9376C15.6727 20.9457 15.6719 20.9523 15.6713 20.9566C15.667 20.9887 15.6645 21.0015 15.6639 21.0044C15.6569 21.0272 15.6484 21.0527 15.6348 21.0929L15.6339 21.0955C15.6213 21.1327 15.6039 21.184 15.5877 21.238C15.5548 21.3474 15.5128 21.5103 15.5092 21.7009C15.5088 21.7187 15.5079 21.7393 15.5062 21.7752C15.5059 21.7832 15.5055 21.792 15.505 21.8017C15.5029 21.8478 15.5003 21.909 15.4999 21.9737C15.4992 22.0776 15.5008 22.2971 15.5767 22.5121C15.7332 22.9555 16.0993 23.1294 16.3065 23.1948C16.4098 23.2273 16.505 23.244 16.5642 23.2535C16.6111 23.2609 16.6311 23.2637 16.6442 23.2655C16.6558 23.2671 16.6621 23.268 16.6771 23.2708C16.6835 23.272 16.6887 23.2731 16.7008 23.2757C16.7088 23.2774 16.7199 23.2797 16.7363 23.2832C16.7684 23.29 16.8173 23.3 16.8719 23.3082C16.957 23.3209 17.1718 23.3498 17.406 23.2767C17.621 23.2096 17.7654 23.0956 17.8396 23.0332C17.856 23.0194 17.8714 23.006 17.8811 22.9976L17.8829 22.996L17.9006 22.9807C17.9937 22.9218 18.05 22.883 18.0924 22.8538C18.1444 22.818 18.1753 22.7967 18.2274 22.7704C18.2535 22.7572 18.2794 22.7453 18.3058 22.7341" fill="black"/>
<path fill-rule="evenodd" clip-rule="evenodd" d="M22.8914 23.0088C22.9124 22.4569 23.3768 22.0266 23.9287 22.0476C25.3179 22.1005 26.7958 22.2391 28.2293 22.7603C29.3787 23.1783 30.3809 23.8503 31.2567 24.5007C31.3775 24.5903 31.5076 24.6833 31.644 24.7807C32.2899 25.2421 33.0754 25.8033 33.6604 26.5832C33.9918 27.025 33.9022 27.6518 33.4604 27.9832C33.0186 28.3146 32.3918 28.225 32.0604 27.7832C31.6777 27.273 31.1997 26.9285 30.575 26.4783C30.4147 26.3628 30.2448 26.2404 30.0644 26.1064C29.2294 25.4863 28.4154 24.9561 27.5458 24.6399C26.4092 24.2266 25.1811 24.0968 23.8526 24.0462C23.3007 24.0251 22.8703 23.5607 22.8914 23.0088Z" fill="#A7DC22"/>
<path fill-rule="evenodd" clip-rule="evenodd" d="M22.4233 23.5494C22.8115 23.1565 23.4446 23.1527 23.8375 23.5408C24.0493 23.75 24.2843 23.971 24.5308 24.2027C25.243 24.8723 26.0508 25.6316 26.6678 26.4563C26.7749 26.5995 26.8721 26.7165 26.9835 26.8506C27.0503 26.931 27.1222 27.0176 27.2044 27.1196C27.4034 27.3667 27.6226 27.6587 27.8117 28.0154C27.8377 28.0644 27.8639 28.1136 27.8902 28.1632C28.2475 28.8354 28.6358 29.5661 28.9089 30.3978C28.9238 30.4432 28.9421 30.4933 28.9669 30.5606C28.9693 30.5669 28.9717 30.5734 28.9742 30.5801C28.996 30.639 29.0229 30.7115 29.0481 30.785C29.1036 30.9467 29.1726 31.1726 29.1962 31.4287L29.2056 31.5337C29.208 31.5592 29.2097 31.5728 29.2109 31.5811C29.4008 32.0935 29.1439 32.6648 28.6325 32.8617C28.1171 33.0602 27.5384 32.8033 27.3399 32.2879C27.2368 32.0202 27.217 31.7676 27.2077 31.6491C27.2066 31.635 27.2056 31.6227 27.2047 31.6126C27.2029 31.5927 27.1939 31.5435 27.1563 31.434C27.1395 31.3849 27.1212 31.3355 27.098 31.2729L27.0913 31.2548C27.0668 31.1886 27.0366 31.1067 27.0087 31.0217C26.791 30.3588 26.4788 29.7703 26.1048 29.0655C26.0849 29.0281 26.0649 28.9903 26.0446 28.9521C25.9427 28.7598 25.8143 28.5821 25.647 28.3744C25.6018 28.3184 25.548 28.2534 25.4894 28.1826C25.3573 28.0231 25.2011 27.8345 25.0663 27.6544C24.5618 26.98 23.9503 26.405 23.2816 25.7764C23.0069 25.5181 22.7225 25.2507 22.4319 24.9636C22.039 24.5755 22.0352 23.9423 22.4233 23.5494Z" fill="#A7DC22"/>
<path fill-rule="evenodd" clip-rule="evenodd" d="M5.99704 10.3968C6.2575 9.9098 6.86345 9.72615 7.35046 9.98662C7.59932 10.1197 7.87332 10.2577 8.16109 10.4027C8.99546 10.823 9.94562 11.3016 10.7345 11.8877C10.8702 11.9885 10.9892 12.0679 11.1266 12.1596C11.2094 12.2148 11.2989 12.2745 11.4027 12.3461C11.6519 12.5178 11.9339 12.7263 12.2053 13.0024C12.2423 13.04 12.2796 13.0778 12.3171 13.1159C12.8221 13.6283 13.3754 14.1897 13.848 14.8726C13.8729 14.9085 13.9021 14.9479 13.9426 15.0021C13.9464 15.0071 13.9504 15.0124 13.9544 15.0178C13.9899 15.0651 14.0341 15.1241 14.0771 15.1845C14.1715 15.317 14.2985 15.5084 14.3907 15.7419L14.4266 15.8338C14.4324 15.8484 14.4363 15.8579 14.439 15.8642C14.761 16.3009 14.676 16.9169 14.2441 17.2496C13.8065 17.5866 13.1786 17.5051 12.8416 17.0675C12.6693 16.8438 12.5812 16.6106 12.5421 16.5071C12.5376 16.495 12.5337 16.4846 12.5304 16.4763C12.5271 16.4681 12.5103 16.4321 12.4479 16.3445C12.4201 16.3054 12.3908 16.2663 12.3529 16.2158L12.3421 16.2014C12.3023 16.1482 12.2523 16.0813 12.2035 16.0108C11.8328 15.4752 11.3941 15.0294 10.863 14.4898C10.8354 14.4617 10.8075 14.4333 10.7793 14.4047C10.6384 14.2615 10.4763 14.1365 10.268 13.993C10.2126 13.9548 10.1463 13.9105 10.074 13.8621C9.90988 13.7522 9.71431 13.6213 9.54178 13.4931C8.90214 13.0179 8.19051 12.6594 7.40919 12.2658C7.087 12.1034 6.75296 11.9351 6.40723 11.7502C5.92022 11.4898 5.73657 10.8838 5.99704 10.3968Z" fill="#A7DC22"/>
<path fill-rule="evenodd" clip-rule="evenodd" d="M10.4747 9.53043C10.8818 9.15724 11.5144 9.18474 11.8876 9.59186C11.9964 9.71063 12.123 9.82413 12.29 9.96905C12.3057 9.98271 12.322 9.99678 12.3387 10.0112C12.4861 10.1388 12.6674 10.2958 12.8383 10.4691C13.4212 11.0601 13.8283 11.7885 14.1411 12.3717C14.4789 13.0015 14.8205 13.619 15.1761 14.2333C15.6064 14.9765 15.9096 15.8206 16.1705 16.5468C16.2367 16.7311 16.3002 16.9078 16.3623 17.0734C16.5564 17.5904 16.2946 18.1669 15.7775 18.361C15.2605 18.5551 14.684 18.2933 14.4899 17.7762C14.4058 17.5523 14.328 17.3365 14.2528 17.1281C13.9996 16.4262 13.7762 15.8071 13.4453 15.2354C13.0766 14.5986 12.7245 13.9618 12.3786 13.3171C12.0643 12.7311 11.7736 12.2376 11.4144 11.8735C11.3019 11.7594 11.1807 11.6543 11.0238 11.5183C11.0092 11.5056 10.9943 11.4927 10.9791 11.4795C10.8121 11.3346 10.6073 11.155 10.4132 10.9433C10.04 10.5362 10.0676 9.90362 10.4747 9.53043Z" fill="#A7DC22"/>
<path fill-rule="evenodd" clip-rule="evenodd" d="M6.591 14.6365C6.59308 14.0843 7.04247 13.6382 7.59475 13.6403C8.47067 13.6436 9.39882 13.7456 10.309 14.0758C11.3664 14.4593 12.3681 15.1669 13.1352 15.7574C14.1676 16.5521 14.9067 17.4468 15.6392 18.3895C15.9781 18.8256 15.8993 19.4539 15.4632 19.7928C15.0271 20.1316 14.3988 20.0528 14.06 19.6167C13.3457 18.6975 12.7351 17.9734 11.9153 17.3422C11.1691 16.7679 10.3741 16.2269 9.62704 15.9559C9.00152 15.729 8.31934 15.643 7.58724 15.6403C7.03496 15.6382 6.58893 15.1888 6.591 14.6365Z" fill="#A7DC22"/>
<path fill-rule="evenodd" clip-rule="evenodd" d="M22.7912 23.3657C22.8982 22.8239 23.4241 22.4714 23.966 22.5784C24.9974 22.782 26.0608 23.125 27.0595 23.7522C28.2156 24.4782 29.2651 25.6116 30.0751 26.5605C31.141 27.809 31.8568 29.1221 32.5725 30.5275C32.8232 31.0197 32.6274 31.6218 32.1352 31.8724C31.6431 32.1231 31.0409 31.9273 30.7903 31.4351C30.0853 30.0506 29.4573 28.9171 28.554 27.859C27.7552 26.9234 26.8733 25.9969 25.9959 25.4459C25.2637 24.9861 24.4501 24.7126 23.5785 24.5405C23.0367 24.4335 22.6842 23.9076 22.7912 23.3657Z" fill="#A7DC22"/>
</svg>
