<svg width="25" height="24" viewBox="0 0 25 24" fill="none" xmlns="http://www.w3.org/2000/svg">
<path fill-rule="evenodd" clip-rule="evenodd" d="M8.5 21.9995C8.5 21.4473 8.94772 20.9995 9.5 20.9995L11.5 20.9995H13.5L15.5 20.9995C16.0523 20.9995 16.5 21.4473 16.5 21.9995C16.5 22.5518 16.0523 22.9995 15.5 22.9995H9.5C8.94772 22.9995 8.5 22.5518 8.5 21.9995Z" fill="#FFFFFF"/>
<path d="M13.5 4.34104V6.37796C13.5088 6.37356 13.518 6.36939 13.5276 6.36552C13.592 6.33978 13.9921 6.19612 14.9453 6.8316C16.2421 7.69612 17.342 7.83978 18.2151 7.49052C18.6227 7.32751 18.9079 7.08279 19.091 6.87945C19.1827 6.77745 19.2516 6.68292 19.3003 6.60832C19.3249 6.57083 19.3447 6.53777 19.3602 6.51055C19.3679 6.49692 19.3746 6.48469 19.3803 6.47402L19.3881 6.45918L19.3915 6.45266L19.393 6.44963L19.3937 6.44818C19.3937 6.44818 19.3944 6.44676 18.5 5.99955L19.3944 6.44676C19.4639 6.30791 19.5 6.15479 19.5 5.99955V2.99955C19.5 2.53577 19.1811 2.13285 18.7298 2.0263C18.2911 1.92276 17.8393 2.12547 17.6238 2.51764C17.6204 2.52235 17.6139 2.53089 17.6044 2.54152C17.5764 2.57255 17.5336 2.60908 17.4724 2.63357C17.408 2.65931 17.0079 2.80297 16.0547 2.1675C14.7579 1.30297 13.658 1.15931 12.7849 1.50857C12.3773 1.67158 12.0921 1.9163 11.909 2.11964C11.8173 2.22164 11.7484 2.31618 11.6997 2.39077C11.6751 2.42827 11.6553 2.46132 11.6398 2.48854C11.6355 2.49615 11.6315 2.50333 11.6278 2.51003C11.5464 2.65473 11.5 2.82172 11.5 2.99955V5.99955C11.5 6.46332 11.8189 6.86624 12.2702 6.9728C12.3436 6.99011 12.4173 6.99886 12.4903 6.9996C12.4968 6.99966 12.5034 6.99966 12.51 6.9996C12.8658 6.99611 13.2 6.80212 13.3762 6.48146C13.3796 6.47675 13.3861 6.4682 13.3956 6.45757C13.4192 6.43144 13.4533 6.40141 13.5 6.37796V4.34104V3.37796C13.5088 3.37356 13.518 3.36939 13.5276 3.36552C13.592 3.33978 13.9921 3.19612 14.9453 3.8316C15.9099 4.47466 16.7656 4.71888 17.5 4.65806V5.62114C17.4912 5.62554 17.482 5.6297 17.4724 5.63357C17.408 5.65931 17.0079 5.80297 16.0547 5.1675C15.0901 4.52443 14.2344 4.28021 13.5 4.34104Z" fill="#FFFFFF"/>
<path d="M13.0547 7.1675L13.5 7.46436V6.37796C13.4533 6.40141 13.4192 6.43144 13.3956 6.45757C13.3861 6.4682 13.3796 6.47675 13.3762 6.48146C13.2 6.80212 12.8658 6.99611 12.51 6.9996C12.7 7.00149 12.8896 7.05746 13.0547 7.1675Z" fill="#FFFFFF"/>
<path d="M11.5 7.46436L11.9453 7.1675C12.1104 7.05741 12.3001 7.00145 12.4903 6.9996C12.4173 6.99886 12.3436 6.99011 12.2702 6.9728C11.8189 6.86624 11.5 6.46332 11.5 5.99955V7.46436Z" fill="#FFFFFF"/>
<path fill-rule="evenodd" clip-rule="evenodd" d="M12.4903 6.9996C12.3001 7.00145 12.1104 7.05741 11.9453 7.1675L11.5 7.46436L5.9453 11.1675C5.6671 11.353 5.5 11.6652 5.5 11.9995V14.4995H3.5C2.96957 14.4995 2.46086 14.7103 2.08579 15.0853C1.71071 15.4604 1.5 15.9691 1.5 16.4995V21.9995C1.5 22.5518 1.94772 22.9995 2.5 22.9995H10.5H14.5H21.5C22.0304 22.9995 22.5391 22.7888 22.9142 22.4138C23.2893 22.0387 23.5 21.53 23.5 20.9995V16.4995C23.5 15.9691 23.2893 15.4604 22.9142 15.0853C22.5391 14.7103 22.0304 14.4995 21.5 14.4995H19.5V11.9995C19.5 11.6652 19.3329 11.353 19.0547 11.1675L13.5 7.46436L13.0547 7.1675C12.8896 7.05746 12.7 7.00149 12.51 6.9996L12.4903 6.9996ZM15.5 15.4995V20.9995L13.5 20.9995V16.4995H11.5V20.9995L9.5 20.9995V15.4995C9.5 14.9473 9.94771 14.4995 10.5 14.4995H14.5C15.0523 14.4995 15.5 14.9473 15.5 15.4995Z" fill="#FFFFFF"/>
</svg>
