<svg width="25" height="24" viewBox="0 0 25 24" fill="none" xmlns="http://www.w3.org/2000/svg">
<path fill-rule="evenodd" clip-rule="evenodd" d="M13.5 3C13.5 2.73478 13.3946 2.48043 13.2071 2.29289C13.0196 2.10536 12.7652 2 12.5 2C12.2348 2 11.9804 2.10536 11.7929 2.29289C11.6054 2.48043 11.5 2.73478 11.5 3V4C11.5 4.26522 11.6054 4.51957 11.7929 4.70711C11.9804 4.89464 12.2348 5 12.5 5C12.7652 5 13.0196 4.89464 13.2071 4.70711C13.3946 4.51957 13.5 4.26522 13.5 4V3ZM6.207 4.293C6.0184 4.11084 5.7658 4.01005 5.5036 4.01233C5.2414 4.0146 4.99059 4.11977 4.80518 4.30518C4.61977 4.49059 4.5146 4.7414 4.51233 5.0036C4.51005 5.2658 4.61084 5.5184 4.793 5.707L5.793 6.707C5.9816 6.88916 6.2342 6.98995 6.4964 6.98767C6.7586 6.9854 7.00941 6.88023 7.19482 6.69482C7.38023 6.50941 7.4854 6.2586 7.48767 5.9964C7.48995 5.7342 7.38916 5.4816 7.207 5.293L6.207 4.293ZM20.207 4.293C20.0195 4.10553 19.7652 4.00021 19.5 4.00021C19.2348 4.00021 18.9805 4.10553 18.793 4.293L17.793 5.293C17.6108 5.4816 17.51 5.7342 17.5123 5.9964C17.5146 6.2586 17.6198 6.50941 17.8052 6.69482C17.9906 6.88023 18.2414 6.9854 18.5036 6.98767C18.7658 6.98995 19.0184 6.88916 19.207 6.707L20.207 5.707C20.3945 5.51947 20.4998 5.26516 20.4998 5C20.4998 4.73484 20.3945 4.48053 20.207 4.293ZM12.5 7C11.1739 7 9.90215 7.52678 8.96447 8.46447C8.02678 9.40215 7.5 10.6739 7.5 12C7.5 13.3261 8.02678 14.5979 8.96447 15.5355C9.90215 16.4732 11.1739 17 12.5 17C13.8261 17 15.0979 16.4732 16.0355 15.5355C16.9732 14.5979 17.5 13.3261 17.5 12C17.5 10.6739 16.9732 9.40215 16.0355 8.46447C15.0979 7.52678 13.8261 7 12.5 7ZM3.5 11C3.23478 11 2.98043 11.1054 2.79289 11.2929C2.60536 11.4804 2.5 11.7348 2.5 12C2.5 12.2652 2.60536 12.5196 2.79289 12.7071C2.98043 12.8946 3.23478 13 3.5 13H4.5C4.76522 13 5.01957 12.8946 5.20711 12.7071C5.39464 12.5196 5.5 12.2652 5.5 12C5.5 11.7348 5.39464 11.4804 5.20711 11.2929C5.01957 11.1054 4.76522 11 4.5 11H3.5ZM20.5 11C20.2348 11 19.9804 11.1054 19.7929 11.2929C19.6054 11.4804 19.5 11.7348 19.5 12C19.5 12.2652 19.6054 12.5196 19.7929 12.7071C19.9804 12.8946 20.2348 13 20.5 13H21.5C21.7652 13 22.0196 12.8946 22.2071 12.7071C22.3946 12.5196 22.5 12.2652 22.5 12C22.5 11.7348 22.3946 11.4804 22.2071 11.2929C22.0196 11.1054 21.7652 11 21.5 11H20.5ZM7.207 18.707C7.30251 18.6148 7.37869 18.5044 7.4311 18.3824C7.48351 18.2604 7.5111 18.1292 7.51225 17.9964C7.5134 17.8636 7.4881 17.7319 7.43782 17.609C7.38754 17.4862 7.31329 17.3745 7.2194 17.2806C7.1255 17.1867 7.01385 17.1125 6.89095 17.0622C6.76806 17.0119 6.63638 16.9866 6.5036 16.9877C6.37082 16.9889 6.2396 17.0165 6.1176 17.0689C5.99559 17.1213 5.88525 17.1975 5.793 17.293L4.793 18.293C4.69749 18.3852 4.62131 18.4956 4.5689 18.6176C4.51649 18.7396 4.4889 18.8708 4.48775 19.0036C4.4866 19.1364 4.5119 19.2681 4.56218 19.391C4.61246 19.5138 4.68671 19.6255 4.7806 19.7194C4.8745 19.8133 4.98615 19.8875 5.10905 19.9378C5.23194 19.9881 5.36362 20.0134 5.4964 20.0123C5.62918 20.0111 5.7604 19.9835 5.8824 19.9311C6.00441 19.8787 6.11475 19.8025 6.207 19.707L7.207 18.707ZM19.207 17.293C19.0184 17.1108 18.7658 17.01 18.5036 17.0123C18.2414 17.0146 17.9906 17.1198 17.8052 17.3052C17.6198 17.4906 17.5146 17.7414 17.5123 18.0036C17.51 18.2658 17.6108 18.5184 17.793 18.707L18.793 19.707C18.9816 19.8892 19.2342 19.99 19.4964 19.9877C19.7586 19.9854 20.0094 19.8802 20.1948 19.6948C20.3802 19.5094 20.4854 19.2586 20.4877 18.9964C20.49 18.7342 20.3892 18.4816 20.207 18.293L19.207 17.293ZM13.5 20C13.5 19.7348 13.3946 19.4804 13.2071 19.2929C13.0196 19.1054 12.7652 19 12.5 19C12.2348 19 11.9804 19.1054 11.7929 19.2929C11.6054 19.4804 11.5 19.7348 11.5 20V21C11.5 21.2652 11.6054 21.5196 11.7929 21.7071C11.9804 21.8946 12.2348 22 12.5 22C12.7652 22 13.0196 21.8946 13.2071 21.7071C13.3946 21.5196 13.5 21.2652 13.5 21V20Z" fill="#FFFFFF"/>
</svg>
